<svg width="87" height="50" viewBox="0 0 87 50" fill="none" xmlns="http://www.w3.org/2000/svg">
<path d="M0.0454545 50V3.45454H30.8636V11.5682H9.88636V22.6591H28.8182V30.7727H9.88636V50H0.0454545ZM37.3011 50V15.0909H46.983V50H37.3011ZM42.1648 10.5909C40.7254 10.5909 39.4905 10.1136 38.4602 9.15909C37.4451 8.18939 36.9375 7.0303 36.9375 5.68182C36.9375 4.34848 37.4451 3.20454 38.4602 2.25C39.4905 1.2803 40.7254 0.795452 42.1648 0.795452C43.6042 0.795452 44.8314 1.2803 45.8466 2.25C46.8769 3.20454 47.392 4.34848 47.392 5.68182C47.392 7.0303 46.8769 8.18939 45.8466 9.15909C44.8314 10.1136 43.6042 10.5909 42.1648 10.5909ZM64.4205 29.8182V50H54.7386V15.0909H63.9659V21.25H64.375C65.1477 19.2197 66.4432 17.6136 68.2614 16.4318C70.0795 15.2348 72.2841 14.6364 74.875 14.6364C77.2992 14.6364 79.4129 15.1667 81.2159 16.2273C83.0189 17.2879 84.4205 18.803 85.4205 20.7727C86.4205 22.7273 86.9205 25.0606 86.9205 27.7727V50H77.2386V29.5C77.2538 27.3636 76.7083 25.697 75.6023 24.5C74.4962 23.2879 72.9735 22.6818 71.0341 22.6818C69.7311 22.6818 68.5795 22.9621 67.5795 23.5227C66.5947 24.0833 65.822 24.9015 65.2614 25.9773C64.7159 27.0379 64.4356 28.3182 64.4205 29.8182Z" fill="#29374E"/>
</svg>
