<svg width="84" height="51" viewBox="0 0 84 51" fill="none" xmlns="http://www.w3.org/2000/svg">
<path d="M0.0454545 50V3.45454H9.88636V23.9773H10.5L27.25 3.45454H39.0455L21.7727 24.2955L39.25 50H27.4773L14.7273 30.8636L9.88636 36.7727V50H0.0454545ZM46.5601 50V15.0909H56.242V50H46.5601ZM51.4238 10.5909C49.9844 10.5909 48.7495 10.1136 47.7192 9.15909C46.7041 8.18939 46.1965 7.0303 46.1965 5.68182C46.1965 4.34848 46.7041 3.20454 47.7192 2.25C48.7495 1.2803 49.9844 0.795452 51.4238 0.795452C52.8632 0.795452 54.0904 1.2803 55.1056 2.25C56.1359 3.20454 56.651 4.34848 56.651 5.68182C56.651 7.0303 56.1359 8.18939 55.1056 9.15909C54.0904 10.1136 52.8632 10.5909 51.4238 10.5909ZM82.9498 15.0909V22.3636H61.9271V15.0909H82.9498ZM66.6998 6.72727H76.3816V39.2727C76.3816 40.1667 76.518 40.8636 76.7907 41.3636C77.0635 41.8485 77.4422 42.1894 77.9271 42.3864C78.4271 42.5833 79.0028 42.6818 79.6544 42.6818C80.1089 42.6818 80.5635 42.6439 81.018 42.5682C81.4725 42.4773 81.821 42.4091 82.0635 42.3636L83.5862 49.5682C83.1013 49.7197 82.4195 49.8939 81.5407 50.0909C80.6619 50.303 79.5938 50.4318 78.3362 50.4773C76.0028 50.5682 73.9574 50.2576 72.1998 49.5455C70.4574 48.8333 69.1013 47.7273 68.1316 46.2273C67.1619 44.7273 66.6847 42.8333 66.6998 40.5455V6.72727Z" fill="#0962E8"/>
</svg>
